<?xml version="1.0" standalone="no"?>
<!DOCTYPE svg PUBLIC "-//W3C//DTD SVG 20010904//EN"
 "http://www.w3.org/TR/2001/REC-SVG-20010904/DTD/svg10.dtd">
<svg version="1.0" xmlns="http://www.w3.org/2000/svg"
 width="700.000000pt" height="700.000000pt" viewBox="0 0 700.000000 700.000000"
 preserveAspectRatio="xMidYMid meet">
<metadata>
Created by potrace 1.14, written by Peter Selinger 2001-2017
</metadata>
<g transform="translate(0.000000,700.000000) scale(0.100000,-0.100000)"
fill="#000000" stroke="none">
<path d="M4475 6795 c-130 -27 -255 -115 -322 -227 -54 -89 -84 -253 -62 -336
3 -9 -19 -22 -62 -36 -75 -26 -142 -69 -199 -128 l-39 -41 -22 28 c-55 69
-187 144 -284 160 -272 44 -534 -149 -561 -415 -3 -30 -7 -56 -9 -58 -1 -1
-24 10 -51 25 -27 15 -71 35 -98 43 -47 16 -50 19 -71 78 -72 198 -224 316
-426 329 -99 7 -167 -6 -249 -47 -113 -57 -210 -171 -245 -287 l-17 -58 -57 5
c-220 20 -441 -80 -591 -266 -40 -50 -101 -174 -115 -234 -2 -8 -8 -33 -13
-56 -21 -93 3 -303 44 -382 l14 -27 -123 -6 c-145 -8 -181 -17 -278 -66 -51
-26 -96 -59 -144 -108 -255 -259 -217 -674 81 -885 110 -78 293 -124 399 -100
l30 7 1 -56 c0 -31 4 -119 8 -196 6 -140 11 -223 21 -430 3 -60 8 -157 10
-215 3 -58 7 -152 10 -210 3 -58 7 -157 10 -220 3 -63 7 -153 10 -200 3 -47 7
-146 10 -220 3 -74 8 -166 10 -205 2 -38 7 -137 10 -220 3 -82 8 -184 10 -225
3 -41 7 -136 10 -210 8 -198 16 -252 55 -364 41 -120 135 -256 235 -341 105
-90 278 -171 409 -192 57 -9 3268 -10 3336 -1 178 24 338 106 471 240 107 107
192 259 218 391 17 86 19 106 25 257 4 80 8 181 11 225 3 44 7 139 10 210 3
72 7 171 10 220 2 50 7 140 10 200 11 241 16 364 20 440 2 44 7 145 10 225 4
80 8 172 10 205 2 33 6 128 10 210 4 83 8 173 10 200 5 60 18 361 19 427 l1
47 70 -3 c469 -18 765 506 508 900 -102 156 -268 251 -460 262 l-91 5 3 75 c4
118 -29 223 -97 313 l-35 45 38 32 c20 18 50 58 66 89 96 196 -51 419 -272
415 -23 -1 -53 -6 -68 -11 -25 -10 -28 -8 -47 35 -24 56 -82 114 -138 140
l-42 19 7 45 c17 115 -9 200 -81 272 -69 69 -183 99 -284 74 -18 -4 -32 -4
-30 1 11 42 -62 183 -132 254 -114 116 -278 166 -435 134z"/>
</g>
</svg>
